<svg xmlns="http://www.w3.org/2000/svg" width="64" height="96" viewBox="0 0 64 96" shape-rendering="crispEdges">
<g>
<rect x="23" y="6" width="3" height="3" fill="#1b1b1b"/>
<rect x="26" y="6" width="3" height="3" fill="#1b1b1b"/>
<rect x="29" y="6" width="3" height="3" fill="#1b1b1b"/>
<rect x="23" y="9" width="3" height="3" fill="#1b1b1b"/>
<rect x="23" y="12" width="3" height="3" fill="#1b1b1b"/>
<rect x="32" y="6" width="3" height="3" fill="#1b1b1b"/>
<rect x="35" y="6" width="3" height="3" fill="#1b1b1b"/>
<rect x="38" y="6" width="3" height="3" fill="#1b1b1b"/>
<rect x="41" y="6" width="3" height="3" fill="#1b1b1b"/>
<rect x="41" y="9" width="3" height="3" fill="#1b1b1b"/>
<rect x="41" y="12" width="3" height="3" fill="#1b1b1b"/>
<rect x="23" y="15" width="3" height="3" fill="#1b1b1b"/>
<rect x="41" y="15" width="3" height="3" fill="#1b1b1b"/>
<rect x="23" y="18" width="3" height="3" fill="#1b1b1b"/>
<rect x="41" y="18" width="3" height="3" fill="#1b1b1b"/>
<rect x="23" y="21" width="3" height="3" fill="#1b1b1b"/>
<rect x="41" y="21" width="3" height="3" fill="#1b1b1b"/>
<rect x="23" y="24" width="3" height="3" fill="#1b1b1b"/>
<rect x="26" y="24" width="3" height="3" fill="#1b1b1b"/>
<rect x="38" y="24" width="3" height="3" fill="#1b1b1b"/>
<rect x="41" y="24" width="3" height="3" fill="#1b1b1b"/>
<rect x="26" y="27" width="3" height="3" fill="#1b1b1b"/>
<rect x="38" y="27" width="3" height="3" fill="#1b1b1b"/>
<rect x="23" y="27" width="3" height="3" fill="#1b1b1b"/>
<rect x="23" y="30" width="3" height="3" fill="#1b1b1b"/>
<rect x="41" y="27" width="3" height="3" fill="#1b1b1b"/>
<rect x="41" y="30" width="3" height="3" fill="#1b1b1b"/>
<rect x="41" y="33" width="3" height="3" fill="#1b1b1b"/>
<rect x="20" y="30" width="3" height="3" fill="#1b1b1b"/>
<rect x="20" y="33" width="3" height="3" fill="#1b1b1b"/>
<rect x="20" y="36" width="3" height="3" fill="#1b1b1b"/>
<rect x="20" y="39" width="3" height="3" fill="#1b1b1b"/>
<rect x="44" y="33" width="3" height="3" fill="#1b1b1b"/>
<rect x="47" y="33" width="3" height="3" fill="#1b1b1b"/>
<rect x="47" y="36" width="3" height="3" fill="#1b1b1b"/>
<rect x="47" y="39" width="3" height="3" fill="#1b1b1b"/>
<rect x="20" y="42" width="3" height="3" fill="#1b1b1b"/>
<rect x="47" y="42" width="3" height="3" fill="#1b1b1b"/>
<rect x="20" y="45" width="3" height="3" fill="#1b1b1b"/>
<rect x="47" y="45" width="3" height="3" fill="#1b1b1b"/>
<rect x="20" y="48" width="3" height="3" fill="#1b1b1b"/>
<rect x="47" y="48" width="3" height="3" fill="#1b1b1b"/>
<rect x="20" y="51" width="3" height="3" fill="#1b1b1b"/>
<rect x="47" y="51" width="3" height="3" fill="#1b1b1b"/>
<rect x="20" y="54" width="3" height="3" fill="#1b1b1b"/>
<rect x="47" y="54" width="3" height="3" fill="#1b1b1b"/>
<rect x="20" y="57" width="3" height="3" fill="#1b1b1b"/>
<rect x="23" y="57" width="3" height="3" fill="#1b1b1b"/>
<rect x="41" y="57" width="3" height="3" fill="#1b1b1b"/>
<rect x="44" y="57" width="3" height="3" fill="#1b1b1b"/>
<rect x="47" y="57" width="3" height="3" fill="#1b1b1b"/>
<rect x="23" y="60" width="3" height="3" fill="#1b1b1b"/>
<rect x="26" y="60" width="3" height="3" fill="#1b1b1b"/>
<rect x="41" y="60" width="3" height="3" fill="#1b1b1b"/>
<rect x="26" y="63" width="3" height="3" fill="#1b1b1b"/>
<rect x="41" y="63" width="3" height="3" fill="#1b1b1b"/>
<rect x="26" y="66" width="3" height="3" fill="#1b1b1b"/>
<rect x="41" y="66" width="3" height="3" fill="#1b1b1b"/>
<rect x="26" y="69" width="3" height="3" fill="#1b1b1b"/>
<rect x="41" y="69" width="3" height="3" fill="#1b1b1b"/>
<rect x="26" y="72" width="3" height="3" fill="#1b1b1b"/>
<rect x="41" y="72" width="3" height="3" fill="#1b1b1b"/>
<rect x="26" y="75" width="3" height="3" fill="#1b1b1b"/>
<rect x="41" y="75" width="3" height="3" fill="#1b1b1b"/>
<rect x="26" y="78" width="3" height="3" fill="#1b1b1b"/>
<rect x="41" y="78" width="3" height="3" fill="#1b1b1b"/>
<rect x="26" y="81" width="3" height="3" fill="#1b1b1b"/>
<rect x="41" y="81" width="3" height="3" fill="#1b1b1b"/>
<rect x="23" y="81" width="3" height="3" fill="#1b1b1b"/>
<rect x="23" y="84" width="3" height="3" fill="#1b1b1b"/>
<rect x="23" y="87" width="3" height="3" fill="#1b1b1b"/>
<rect x="44" y="81" width="3" height="3" fill="#1b1b1b"/>
<rect x="44" y="84" width="3" height="3" fill="#1b1b1b"/>
<rect x="44" y="87" width="3" height="3" fill="#1b1b1b"/>
<rect x="23" y="90" width="3" height="3" fill="#1b1b1b"/>
<rect x="26" y="90" width="3" height="3" fill="#1b1b1b"/>
<rect x="29" y="90" width="3" height="3" fill="#1b1b1b"/>
<rect x="32" y="90" width="3" height="3" fill="#1b1b1b"/>
<rect x="35" y="90" width="3" height="3" fill="#1b1b1b"/>
<rect x="38" y="90" width="3" height="3" fill="#1b1b1b"/>
<rect x="41" y="90" width="3" height="3" fill="#1b1b1b"/>
<rect x="44" y="90" width="3" height="3" fill="#1b1b1b"/>
<rect x="26" y="9" width="3" height="3" fill="#412b1f"/>
<rect x="29" y="9" width="3" height="3" fill="#412b1f"/>
<rect x="32" y="9" width="3" height="3" fill="#412b1f"/>
<rect x="35" y="9" width="3" height="3" fill="#412b1f"/>
<rect x="38" y="9" width="3" height="3" fill="#412b1f"/>
<rect x="26" y="12" width="3" height="3" fill="#5d3c2c"/>
<rect x="29" y="12" width="3" height="3" fill="#412b1f"/>
<rect x="32" y="12" width="3" height="3" fill="#5d3c2c"/>
<rect x="35" y="12" width="3" height="3" fill="#412b1f"/>
<rect x="38" y="12" width="3" height="3" fill="#5d3c2c"/>
<rect x="26" y="15" width="3" height="3" fill="#a1724e"/>
<rect x="29" y="15" width="3" height="3" fill="#c69065"/>
<rect x="32" y="15" width="3" height="3" fill="#c69065"/>
<rect x="35" y="15" width="3" height="3" fill="#c69065"/>
<rect x="38" y="15" width="3" height="3" fill="#412b1f"/>
<rect x="26" y="18" width="3" height="3" fill="#a1724e"/>
<rect x="29" y="18" width="3" height="3" fill="#c69065"/>
<rect x="32" y="18" width="3" height="3" fill="#c69065"/>
<rect x="35" y="18" width="3" height="3" fill="#0f0f0f"/>
<rect x="38" y="18" width="3" height="3" fill="#412b1f"/>
<rect x="26" y="21" width="3" height="3" fill="#a1724e"/>
<rect x="29" y="21" width="3" height="3" fill="#c69065"/>
<rect x="32" y="21" width="3" height="3" fill="#c69065"/>
<rect x="35" y="21" width="3" height="3" fill="#c69065"/>
<rect x="38" y="21" width="3" height="3" fill="#412b1f"/>
<rect x="29" y="24" width="3" height="3" fill="#c69065"/>
<rect x="32" y="24" width="3" height="3" fill="#c69065"/>
<rect x="35" y="24" width="3" height="3" fill="#6a3e2a"/>
<rect x="29" y="27" width="3" height="3" fill="#c69065"/>
<rect x="32" y="27" width="3" height="3" fill="#c69065"/>
<rect x="35" y="27" width="3" height="3" fill="#c69065"/>
<rect x="26" y="30" width="3" height="3" fill="#8f3520"/>
<rect x="29" y="30" width="3" height="3" fill="#8f3520"/>
<rect x="32" y="30" width="3" height="3" fill="#b14b2f"/>
<rect x="35" y="30" width="3" height="3" fill="#ca6747"/>
<rect x="38" y="30" width="3" height="3" fill="#ca6747"/>
<rect x="23" y="33" width="3" height="3" fill="#8f3520"/>
<rect x="26" y="33" width="3" height="3" fill="#8f3520"/>
<rect x="29" y="33" width="3" height="3" fill="#8f3520"/>
<rect x="32" y="33" width="3" height="3" fill="#ece4d6"/>
<rect x="35" y="33" width="3" height="3" fill="#ca6747"/>
<rect x="38" y="33" width="3" height="3" fill="#ca6747"/>
<rect x="23" y="36" width="3" height="3" fill="#8f3520"/>
<rect x="26" y="36" width="3" height="3" fill="#8f3520"/>
<rect x="29" y="36" width="3" height="3" fill="#8f3520"/>
<rect x="32" y="36" width="3" height="3" fill="#ece4d6"/>
<rect x="35" y="36" width="3" height="3" fill="#ca6747"/>
<rect x="38" y="36" width="3" height="3" fill="#ca6747"/>
<rect x="41" y="36" width="3" height="3" fill="#8f3520"/>
<rect x="44" y="36" width="3" height="3" fill="#8f3520"/>
<rect x="23" y="39" width="3" height="3" fill="#8f3520"/>
<rect x="26" y="39" width="3" height="3" fill="#8f3520"/>
<rect x="29" y="39" width="3" height="3" fill="#8f3520"/>
<rect x="32" y="39" width="3" height="3" fill="#ece4d6"/>
<rect x="35" y="39" width="3" height="3" fill="#ca6747"/>
<rect x="38" y="39" width="3" height="3" fill="#ca6747"/>
<rect x="41" y="39" width="3" height="3" fill="#8f3520"/>
<rect x="44" y="39" width="3" height="3" fill="#8f3520"/>
<rect x="23" y="42" width="3" height="3" fill="#8f3520"/>
<rect x="26" y="42" width="3" height="3" fill="#8f3520"/>
<rect x="29" y="42" width="3" height="3" fill="#8f3520"/>
<rect x="32" y="42" width="3" height="3" fill="#ece4d6"/>
<rect x="35" y="42" width="3" height="3" fill="#b14b2f"/>
<rect x="38" y="42" width="3" height="3" fill="#b14b2f"/>
<rect x="41" y="42" width="3" height="3" fill="#8f3520"/>
<rect x="44" y="42" width="3" height="3" fill="#8f3520"/>
<rect x="23" y="45" width="3" height="3" fill="#8f3520"/>
<rect x="26" y="45" width="3" height="3" fill="#8f3520"/>
<rect x="29" y="45" width="3" height="3" fill="#8f3520"/>
<rect x="32" y="45" width="3" height="3" fill="#ece4d6"/>
<rect x="35" y="45" width="3" height="3" fill="#b14b2f"/>
<rect x="38" y="45" width="3" height="3" fill="#b14b2f"/>
<rect x="41" y="45" width="3" height="3" fill="#8f3520"/>
<rect x="44" y="45" width="3" height="3" fill="#8f3520"/>
<rect x="23" y="48" width="3" height="3" fill="#d67a4e"/>
<rect x="26" y="48" width="3" height="3" fill="#8f3520"/>
<rect x="29" y="48" width="3" height="3" fill="#8f3520"/>
<rect x="32" y="48" width="3" height="3" fill="#ece4d6"/>
<rect x="35" y="48" width="3" height="3" fill="#b14b2f"/>
<rect x="38" y="48" width="3" height="3" fill="#b14b2f"/>
<rect x="41" y="48" width="3" height="3" fill="#d67a4e"/>
<rect x="44" y="48" width="3" height="3" fill="#8f3520"/>
<rect x="23" y="51" width="3" height="3" fill="#a1724e"/>
<rect x="26" y="51" width="3" height="3" fill="#a1724e"/>
<rect x="29" y="51" width="3" height="3" fill="#d7a155"/>
<rect x="32" y="51" width="3" height="3" fill="#d7a155"/>
<rect x="35" y="51" width="3" height="3" fill="#d7a155"/>
<rect x="38" y="51" width="3" height="3" fill="#d7a155"/>
<rect x="41" y="51" width="3" height="3" fill="#c69065"/>
<rect x="44" y="51" width="3" height="3" fill="#c69065"/>
<rect x="23" y="54" width="3" height="3" fill="#a1724e"/>
<rect x="26" y="54" width="3" height="3" fill="#2e4358"/>
<rect x="29" y="54" width="3" height="3" fill="#2e4358"/>
<rect x="32" y="54" width="3" height="3" fill="#3f5a77"/>
<rect x="35" y="54" width="3" height="3" fill="#3f5a77"/>
<rect x="38" y="54" width="3" height="3" fill="#3f5a77"/>
<rect x="41" y="54" width="3" height="3" fill="#c69065"/>
<rect x="44" y="54" width="3" height="3" fill="#c69065"/>
<rect x="26" y="57" width="3" height="3" fill="#2e4358"/>
<rect x="29" y="57" width="3" height="3" fill="#2e4358"/>
<rect x="32" y="57" width="3" height="3" fill="#3f5a77"/>
<rect x="35" y="57" width="3" height="3" fill="#3f5a77"/>
<rect x="38" y="57" width="3" height="3" fill="#3f5a77"/>
<rect x="29" y="60" width="3" height="3" fill="#2e4358"/>
<rect x="32" y="60" width="3" height="3" fill="#2e4358"/>
<rect x="35" y="60" width="3" height="3" fill="#3f5a77"/>
<rect x="38" y="60" width="3" height="3" fill="#3f5a77"/>
<rect x="29" y="63" width="3" height="3" fill="#2e4358"/>
<rect x="32" y="63" width="3" height="3" fill="#2e4358"/>
<rect x="35" y="63" width="3" height="3" fill="#3f5a77"/>
<rect x="38" y="63" width="3" height="3" fill="#3f5a77"/>
<rect x="29" y="66" width="3" height="3" fill="#2e4358"/>
<rect x="32" y="66" width="3" height="3" fill="#2e4358"/>
<rect x="35" y="66" width="3" height="3" fill="#3f5a77"/>
<rect x="38" y="66" width="3" height="3" fill="#3f5a77"/>
<rect x="29" y="69" width="3" height="3" fill="#2e4358"/>
<rect x="32" y="69" width="3" height="3" fill="#2e4358"/>
<rect x="35" y="69" width="3" height="3" fill="#3f5a77"/>
<rect x="38" y="69" width="3" height="3" fill="#3f5a77"/>
<rect x="29" y="72" width="3" height="3" fill="#2e4358"/>
<rect x="32" y="72" width="3" height="3" fill="#2e4358"/>
<rect x="35" y="72" width="3" height="3" fill="#567395"/>
<rect x="38" y="72" width="3" height="3" fill="#3f5a77"/>
<rect x="29" y="75" width="3" height="3" fill="#2e4358"/>
<rect x="32" y="75" width="3" height="3" fill="#2e4358"/>
<rect x="35" y="75" width="3" height="3" fill="#3f5a77"/>
<rect x="38" y="75" width="3" height="3" fill="#3f5a77"/>
<rect x="29" y="78" width="3" height="3" fill="#2e4358"/>
<rect x="32" y="78" width="3" height="3" fill="#2e4358"/>
<rect x="35" y="78" width="3" height="3" fill="#3f5a77"/>
<rect x="38" y="78" width="3" height="3" fill="#3f5a77"/>
<rect x="29" y="81" width="3" height="3" fill="#2e4358"/>
<rect x="32" y="81" width="3" height="3" fill="#2e4358"/>
<rect x="35" y="81" width="3" height="3" fill="#3f5a77"/>
<rect x="38" y="81" width="3" height="3" fill="#3f5a77"/>
<rect x="26" y="84" width="3" height="3" fill="#272523"/>
<rect x="29" y="84" width="3" height="3" fill="#272523"/>
<rect x="32" y="84" width="3" height="3" fill="#272523"/>
<rect x="35" y="84" width="3" height="3" fill="#3a3633"/>
<rect x="38" y="84" width="3" height="3" fill="#3a3633"/>
<rect x="41" y="84" width="3" height="3" fill="#3a3633"/>
<rect x="26" y="87" width="3" height="3" fill="#272523"/>
<rect x="29" y="87" width="3" height="3" fill="#272523"/>
<rect x="32" y="87" width="3" height="3" fill="#272523"/>
<rect x="35" y="87" width="3" height="3" fill="#3a3633"/>
<rect x="38" y="87" width="3" height="3" fill="#3a3633"/>
<rect x="41" y="87" width="3" height="3" fill="#3a3633"/>
</g>
</svg>
