<svg xmlns="http://www.w3.org/2000/svg" viewBox="0 0 1200 800">
  <g shape-rendering="crispEdges">
    <rect width="1200" height="800" fill="#bfe3f7"/>
    <rect y="380" width="1200" height="420" fill="#7bcf72"/>
    <rect y="500" width="1200" height="300" fill="#76bdd8"/>
    <rect x="0" y="560" width="1200" height="10" fill="#d6f2ff"/>
    <rect x="0" y="600" width="1200" height="8" fill="#d6f2ff"/>
    <rect x="0" y="640" width="1200" height="8" fill="#d6f2ff"/>
    <rect x="90" y="280" width="30" height="220" fill="#35543a"/>
    <rect x="130" y="250" width="30" height="250" fill="#35543a"/>
    <rect x="170" y="300" width="26" height="200" fill="#35543a"/>
    <rect x="82" y="210" width="120" height="90" fill="#2d7a42"/>
    <rect x="880" y="240" width="34" height="240" fill="#35543a"/>
    <rect x="930" y="220" width="30" height="260" fill="#35543a"/>
    <rect x="860" y="180" width="130" height="95" fill="#2d7a42"/>
    <rect x="430" y="520" width="340" height="50" fill="#8a3e2d"/>
    <rect x="480" y="488" width="240" height="40" fill="#8a3e2d"/>
    <rect x="605" y="440" width="10" height="50" fill="#2f2f35"/>
    <rect x="490" y="560" width="220" height="8" fill="#6f2f24"/>
  </g>
</svg>
