<svg xmlns="http://www.w3.org/2000/svg" viewBox="0 0 1200 800">
  <g shape-rendering="crispEdges">
    <rect width="1200" height="800" fill="#cfe8f7"/>
    <rect y="430" width="1200" height="370" fill="#2b5f8f"/>
    <path d="M0 430 L260 360 L520 430 L820 340 L1200 430 L1200 480 L0 480 Z" fill="#6b9da6"/>
    <rect x="520" y="180" width="22" height="310" fill="#3c322b"/>
    <polygon points="542,190 760,290 542,290" fill="#f2efe2"/>
    <polygon points="520,240 360,320 520,320" fill="#f2efe2"/>
    <rect x="420" y="500" width="260" height="70" fill="#7b3a2a"/>
    <rect x="470" y="470" width="160" height="30" fill="#7b3a2a"/>
    <rect x="536" y="140" width="6" height="40" fill="#d53b34"/>
    <rect x="542" y="140" width="26" height="18" fill="#d53b34"/>
    <rect x="930" y="320" width="30" height="230" fill="#31543a"/>
    <rect x="975" y="292" width="30" height="258" fill="#31543a"/>
    <rect x="905" y="248" width="130" height="90" fill="#2c7840"/>
  </g>
</svg>
