<svg xmlns="http://www.w3.org/2000/svg" viewBox="0 0 1200 800">
  <g shape-rendering="crispEdges">
    <rect width="1200" height="800" fill="#d9ddb6"/>
    <rect y="380" width="1200" height="420" fill="#7f995f"/>
    <rect x="0" y="530" width="1200" height="6" fill="#567144"/>
    <rect x="0" y="590" width="1200" height="6" fill="#567144"/>
    <rect x="0" y="650" width="1200" height="6" fill="#567144"/>
    <rect x="190" y="420" width="6" height="250" fill="#2f5b3c"/>
    <rect x="290" y="440" width="6" height="230" fill="#2f5b3c"/>
    <rect x="390" y="470" width="6" height="210" fill="#2f5b3c"/>
    <rect x="860" y="470" width="6" height="210" fill="#2f5b3c"/>
    <rect x="960" y="440" width="6" height="230" fill="#2f5b3c"/>
    <rect x="1060" y="420" width="6" height="250" fill="#2f5b3c"/>
    <rect x="150" y="370" width="40" height="40" fill="#d43b37"/>
    <rect x="250" y="390" width="40" height="40" fill="#d43b37"/>
    <rect x="350" y="420" width="40" height="40" fill="#d43b37"/>
    <rect x="820" y="420" width="40" height="40" fill="#d43b37"/>
    <rect x="920" y="390" width="40" height="40" fill="#d43b37"/>
    <rect x="1020" y="370" width="40" height="40" fill="#d43b37"/>
    <rect x="165" y="385" width="10" height="10" fill="#1f2430"/>
    <rect x="265" y="405" width="10" height="10" fill="#1f2430"/>
    <rect x="365" y="435" width="10" height="10" fill="#1f2430"/>
    <rect x="835" y="435" width="10" height="10" fill="#1f2430"/>
    <rect x="935" y="405" width="10" height="10" fill="#1f2430"/>
    <rect x="1035" y="385" width="10" height="10" fill="#1f2430"/>
  </g>
</svg>
