<svg xmlns="http://www.w3.org/2000/svg" viewBox="0 0 1200 800">
  <g shape-rendering="crispEdges">
    <rect width="1200" height="800" fill="#d8ebfa"/>
    <rect y="540" width="1200" height="260" fill="#9ac0d9"/>
    <rect x="110" y="300" width="120" height="240" fill="#7692b2"/>
    <rect x="250" y="240" width="150" height="300" fill="#5f81a8"/>
    <rect x="430" y="285" width="120" height="255" fill="#7895b5"/>
    <rect x="570" y="190" width="170" height="350" fill="#5880ab"/>
    <rect x="760" y="250" width="120" height="290" fill="#7895b5"/>
    <rect x="900" y="210" width="180" height="330" fill="#5f81a8"/>
    <rect x="660" y="135" width="20" height="405" fill="#7d5d4d"/>
    <rect x="640" y="128" width="60" height="10" fill="#7d5d4d"/>
    <rect x="647" y="95" width="46" height="30" fill="#7d5d4d"/>
    <rect x="50" y="180" width="120" height="70" fill="#ef3b35"/>
    <rect x="95" y="180" width="30" height="70" fill="#ffffff"/>
    <rect x="885" y="170" width="120" height="70" fill="#ef3b35"/>
    <rect x="930" y="170" width="30" height="70" fill="#ffffff"/>
    <rect x="95" y="600" width="1010" height="12" fill="#3f4f66"/>
  </g>
</svg>
